# xmcd
#
# Track frame offsets: 
#        150
#        10610
#        19785
#        36710
#        49380
#        59705
#        69655
#        81598
#        92866
#        104866
#        118091
#        135591
#
# Disc length: 2039 seconds
#
# Revision: 0
# Processed by: cddbd v1.5.2PL0 Copyright (c) Steve Scherf et al.
# Submitted via: ExactAudioCopy v0.99pb4
#
DISCID=b807f50c
DTITLE=The Jive Turkeys - Bread and Butter
DYEAR=2010
DGENRE=Funk
TTITLE0=The Funky Turkey
TTITLE1=The JT Strut
TTITLE2=Soul-Hi
TTITLE3=Chickenfoot
TTITLE4=Straight Fire
TTITLE5=Bill Collector
TTITLE6=Stamp
TTITLE7=Funky Brewster
TTITLE8=Talkin' that Talk
TTITLE9=Grimmin'
TTITLE10=B.A.
TTITLE11=Otis Lament
EXTD=
EXTT0=
EXTT1=
EXTT2=
EXTT3=
EXTT4=
EXTT5=
EXTT6=
EXTT7=
EXTT8=
EXTT9=
EXTT10=
EXTT11=
PLAYORDER=
